<svg xmlns="http://www.w3.org/2000/svg" xmlns:xlink="http://www.w3.org/1999/xlink" viewBox="0 0 16.68 16.68"><defs><style>.cls-1{fill:none;}.cls-2{clip-path:url(#clip-path);}.cls-3{fill:#fff;}</style><clipPath id="clip-path" transform="translate(-0.01 -0.04)"><rect class="cls-1" width="16.7" height="16.74"/></clipPath></defs><g id="Layer_2" data-name="Layer 2"><g id="Layer_1-2" data-name="Layer 1"><g class="cls-2"><path class="cls-3" d="M.47,2.71a1.59,1.59,0,0,0,1.19.45L3.23,4.73l-.83.83A1,1,0,0,0,3.88,7l.3-.3L5.84,8.38,1.36,12.86a1,1,0,0,0-.19.27l-1,2.08a1,1,0,0,0,1.4,1.4l2.09-1a1.05,1.05,0,0,0,.27-.2L8.36,10.9l4.47,4.47a1.05,1.05,0,0,0,.27.2l2.09,1a1,1,0,0,0,1.2-.19,1,1,0,0,0,.2-1.21l-1.05-2.08a1,1,0,0,0-.19-.27L10.87,8.38l1.66-1.65.3.3a1,1,0,0,0,1.48-1.47l-.83-.83,1.57-1.57a1.59,1.59,0,0,0,1.19-.45A1.56,1.56,0,0,0,14,.5a1.53,1.53,0,0,0-.45,1.18L12,3.26l-.83-.83a1,1,0,0,0-1.48,0,1.05,1.05,0,0,0,0,1.47l.31.31L8.36,5.86,6.7,4.21,7,3.9A1.05,1.05,0,0,0,7,2.43a1,1,0,0,0-1.48,0l-.83.83L3.13,1.68A1.53,1.53,0,0,0,2.68.5,1.56,1.56,0,0,0,.47,2.71Z" transform="translate(-0.01 -0.04)"/></g></g></g></svg>